<?xml version="1.0" encoding="UTF-8"?>
<svg width="76.51mm" height="18.42mm" version="1.1" viewBox="0 0 76.51 18.42" xmlns="http://www.w3.org/2000/svg" xmlns:cc="http://creativecommons.org/ns#" xmlns:dc="http://purl.org/dc/elements/1.1/" xmlns:rdf="http://www.w3.org/1999/02/22-rdf-syntax-ns#">
<title>Signetics logo</title>
<desc>An electronic manufacturer based in Sunnyvale, California, United States that specialised in integrated circuits, acquired by Philips in 1975</desc>
 <metadata>
  <rdf:RDF>
    <dc:format>image/svg+xml</dc:format>
    <dc:type rdf:resource="http://purl.org/dc/dcmitype/StillImage"/>
    <dc:title/>
  </rdf:RDF>
 </metadata>
 <g transform="translate(-46.41 -85.95)">
  <g transform="translate(-305.4 -249.1)">
   <path d="m397.8 335v1.838h-1.169v2.632h1.169v9.038h5.168v-1.63h-1.767v-7.408h1.767v-2.632h-1.767v-1.838z"/>
   <path d="m351.8 336.9v6.65h4.583v3.39h-1.181v-2.067h-3.402v3.697h7.985v-6.65h-4.583v-3.39h1.181v2.067h3.402v-3.697h-4.583z"/>
   <g transform="translate(77.59 -7.792)">
    <path transform="scale(.2646)" d="m1074 1303v9.947h12.86v-9.947z"/>
    <path d="m284.2 348.4v7.973h3.402v-7.973z"/>
   </g>
   <path d="m366.9 336.9v11.67h3.402v-10.04h1.512v13.32h-6.615v-1.961h-3.402v3.591h13.42v-16.58h-4.914z"/>
   <path d="m377.1 336.9v11.67h3.402v-10.04h1.417v10.04h3.402v-11.67h-4.819z"/>
   <path d="m387.2 336.9v11.67h8.174v-1.63h-4.772v-8.41h1.37v7.087h3.402v-8.717h-4.772z"/>
   <path d="m410.1 336.9v11.67h8.41v-4.938h-3.402v3.307h-1.606v-8.41h1.606v3.307h3.402v-4.937h-5.008z"/>
   <g transform="translate(120.5 -7.792)">
    <path transform="scale(.2646)" d="m1074 1303v9.947h12.86v-9.947z"/>
    <path d="m284.2 348.4v7.973h3.402v-7.973z"/>
   </g>
   <path d="m420.3 336.8v6.65h4.583v3.39h-1.181v-2.067h-3.402v3.697h7.985v-6.65h-4.583v-3.39h1.181v2.067h3.402v-3.697h-4.583z"/>
  </g>
 </g>
</svg>
